# xmcd
#
# Track frame offsets:
#  150
#  20625
#  40910
#  66019
#  86592
#  108693
#  134501
#  146381
#  167030
#  184452
#  216565
#
# Disc length: 3092 seconds
#
# Revision: 2
# Processed by: cddbd v1.5.1PL2 Copyright (c) Steve Scherf et al.
# Submitted via: Collectorz.com_Music_Collector 6.11
#
DISCID=a90c120b
DTITLE=Mel Brown - Blues - A Beautiful Thing
DYEAR=2006
DGENRE=Blues -  Blues Guitar
TTITLE0=Take Your Time
TTITLE1=Blues - A Beautiful Thing
TTITLE2=Ruby Mae
TTITLE3=Snap
TTITLE4=I Wouldn't Treat A Dog
TTITLE5=Red Cross Store
TTITLE6=Sundown
TTITLE7=Make Love To Your Mind
TTITLE8=I Wanna See My Baby
TTITLE9=Master Blaster
TTITLE10=Karansa's Boogie
EXTD=
EXTT0=
EXTT1=
EXTT2=
EXTT3=
EXTT4=
EXTT5=
EXTT6=
EXTT7=
EXTT8=
EXTT9=
EXTT10=
PLAYORDER=
